<?xml version="1.0" standalone="no"?><!DOCTYPE svg PUBLIC "-//W3C//DTD SVG 1.1//EN" "http://www.w3.org/Graphics/SVG/1.1/DTD/svg11.dtd"><svg t="1493714409068" class="icon" style="" viewBox="0 0 1251 1024" version="1.1" xmlns="http://www.w3.org/2000/svg" p-id="4019" xmlns:xlink="http://www.w3.org/1999/xlink" width="156.375" height="128"><defs><style type="text/css"></style></defs><path d="M1112.064 0H139.491556C62.577778 0 0 57.457778 0 128.455111v639.089778c0 70.997333 62.464 128.455111 139.491556 128.455111h69.063111v89.884444c0 22.072889 19.683556 38.115556 41.415111 38.115556 5.916444 0 11.946667-1.137778 17.863111-3.754667l254.293333-111.729777a149.048889 149.048889 0 0 1 59.847111-12.515556h530.090667C1188.977778 896 1251.555556 838.542222 1251.555556 767.544889V128.568889C1251.555556 57.457778 1188.977778 0 1112.064 0M1137.777778 149.276444v577.991112c0 32.085333-28.899556 58.254222-64.398222 58.254222H585.500444c-28.444444 0-57.116444 5.802667-82.716444 16.952889L305.834667 887.466667v-44.145778c0-31.857778-28.672-57.799111-64.056889-57.799111h-63.601778c-35.498667 0-64.398222-26.168889-64.398222-58.254222v-577.991112C113.777778 117.191111 142.677333 91.022222 178.176 91.022222h895.203556c35.498667 0 64.398222 26.168889 64.398222 58.254222zM341.333333 341.333333c0-31.402667 24.462222-56.888889 56.661334-56.888889h455.566222c31.288889 0 56.661333 26.396444 56.661333 56.888889 0 31.402667-24.462222 56.888889-56.661333 56.888889H397.994667A57.344 57.344 0 0 1 341.333333 341.333333z m0 227.555556c0-31.402667 24.462222-56.888889 56.661334-56.888889h455.566222c31.288889 0 56.661333 26.396444 56.661333 56.888889 0 31.402667-24.462222 56.888889-56.661333 56.888889H397.994667A57.344 57.344 0 0 1 341.333333 568.888889z" fill="#ffffff" p-id="4020"></path></svg>