<?xml version="1.0" standalone="no"?><!DOCTYPE svg PUBLIC "-//W3C//DTD SVG 1.1//EN" "http://www.w3.org/Graphics/SVG/1.1/DTD/svg11.dtd"><svg t="1491843462892" class="icon" style="" viewBox="0 0 1024 1024" version="1.1" xmlns="http://www.w3.org/2000/svg" p-id="8681" xmlns:xlink="http://www.w3.org/1999/xlink" width="200" height="200"><defs><style type="text/css"></style></defs><path d="M281.4976 444.2112m-71.68 0a70 70 0 1 0 143.36 0 70 70 0 1 0-143.36 0Z" p-id="8682"></path><path d="M512 444.2112m-71.68 0a70 70 0 1 0 143.36 0 70 70 0 1 0-143.36 0Z" p-id="8683"></path><path d="M742.4 444.2112m-71.68 0a70 70 0 1 0 143.36 0 70 70 0 1 0-143.36 0Z" p-id="8684"></path><path d="M512 60.2112c-271.4624 0-491.52 171.9296-491.52 384 0 116.736 66.6624 221.184 171.7248 291.6352l37.6832 202.752c0.4096 2.2528 1.1264 4.4032 1.9456 6.4512 0 0 0 0 0 0.1024 0.2048 0.4096 0.4096 0.8192 0.6144 1.3312 0 0.1024 0.1024 0.1024 0.1024 0.2048 0.2048 0.4096 0.4096 0.8192 0.6144 1.1264 0 0.1024 0.1024 0.2048 0.2048 0.3072 0.2048 0.3072 0.4096 0.7168 0.6144 1.024 0.1024 0.1024 0.2048 0.3072 0.2048 0.4096 0.2048 0.3072 0.4096 0.6144 0.512 0.8192 0.1024 0.1024 0.1024 0.2048 0.2048 0.2048l0 0c0.1024 0.1024 0.1024 0.2048 0.2048 0.3072 0.1024 0.2048 0.3072 0.3072 0.4096 0.512 0.2048 0.3072 0.4096 0.6144 0.7168 0.9216 0 0 0.1024 0.1024 0.1024 0.1024 3.1744 3.8912 7.168 6.8608 11.5712 8.8064 0.1024 0 0.2048 0.1024 0.3072 0.1024 0.3072 0.1024 0.6144 0.2048 0.9216 0.4096 4.4032 1.7408 9.3184 2.4576 14.2336 1.8432 0.1024 0 0.2048 0 0.3072 0 0.3072 0 0.6144-0.1024 0.9216-0.1024 0.3072 0 0.512-0.1024 0.8192-0.1024 0.1024 0 0.2048 0 0.3072 0 0.1024 0 0.1024 0 0.2048 0 0.4096-0.1024 0.8192-0.2048 1.2288-0.3072 0 0 0.1024 0 0.1024 0 3.584-0.8192 7.168-2.3552 10.3424-4.608l189.7472-131.6864c14.6432 1.024 29.5936 1.536 44.544 1.536 271.4624 0 491.52-171.9296 491.52-384C1003.52 232.1408 783.4624 60.2112 512 60.2112zM821.6576 667.3408c-39.5264 30.9248-85.9136 55.296-137.728 72.3968-54.3744 17.92-112.2304 27.0336-172.032 27.0336-16.6912 0-33.28-0.7168-49.664-2.1504 0 0 0 0 0 0-7.168-0.8192-14.6432 0.8192-20.992 5.2224l-159.6416 110.7968-31.4368-169.0624c-1.6384-9.0112-7.168-16.2816-14.4384-20.6848 0 0 0 0 0 0-11.6736-7.3728-22.8352-15.2576-33.5872-23.552-38.4-30.0032-68.4032-64.6144-89.088-102.912-20.6848-38.2976-31.232-78.7456-31.232-120.2176s10.5472-81.92 31.232-120.2176c20.6848-38.2976 50.688-72.9088 89.088-102.912 39.5264-30.9248 85.9136-55.296 137.728-72.3968 54.3744-17.92 112.2304-27.0336 172.032-27.0336s117.6576 9.1136 172.032 27.0336c51.8144 17.1008 98.0992 41.472 137.728 72.3968 38.4 30.0032 68.4032 64.6144 89.088 102.912 20.6848 38.2976 31.232 78.7456 31.232 120.2176s-10.5472 81.92-31.232 120.2176C890.1632 602.624 860.16 637.3376 821.6576 667.3408z" p-id="8685"></path></svg>