<?xml version="1.0" standalone="no"?><!DOCTYPE svg PUBLIC "-//W3C//DTD SVG 1.1//EN" "http://www.w3.org/Graphics/SVG/1.1/DTD/svg11.dtd"><svg t="1494224025424" class="icon" style="" viewBox="0 0 1024 1024" version="1.1" xmlns="http://www.w3.org/2000/svg" p-id="2376" xmlns:xlink="http://www.w3.org/1999/xlink" width="128" height="128"><defs><style type="text/css"></style></defs><path d="M506.64448 945.82784c-237.24032 0-430.27456-193.03424-430.27456-430.27456S269.39392 85.27872 506.64448 85.27872c237.2608 0 430.27456 193.01376 430.27456 430.27456s-193.024 430.27456-430.27456 430.27456z m0-825.63072c-217.99936 0-395.35616 177.3568-395.35616 395.35616s177.3568 395.35616 395.35616 395.35616 395.35616-177.3568 395.35616-395.35616-177.3568-395.35616-395.35616-395.35616z" fill="#E79164" p-id="2377"></path><path d="M512.83968 565.2992c-15.59552 0-25.40544 7.9872-29.39904 23.93088-1.13664 4.54656-1.6896 9.216-1.6384 13.90592 0 22.272 8.54016 34.52928 25.57952 36.75136l5.45792 0.5632c15.24736 0 25.04704-7.424 29.3888-22.272 1.09568-4.80256 1.6384-9.82016 1.6384-15.04256 0-21.52448-7.97696-33.78176-23.93088-36.74112a21.85216 21.85216 0 0 0-7.07584-1.10592l-0.02048 0.01024z m82.72896-208.15872c4.68992 16.32256 7.24992 30.42304 7.6288 42.30144 0.38912 11.8784-0.55296 20.7872-2.72384 26.71616a31.31392 31.31392 0 0 1-10.06592 14.20288c-4.52608 3.52256-8.33536 5.55008-11.42784 6.12352a56.09472 56.09472 0 0 1-10.05568 0.83968c-15.98464 0.37888-28.76416-3.52256-38.36928-11.68384-9.60512-8.16128-15.59552-18.64704-17.96096-31.45728-2.34496-12.82048-2.99008-26.7264-1.88416-41.75872 1.00352-14.5408 3.64544-28.90752 7.8848-42.8544 4.15744-13.53728 8.50944-25.14944 13.056-34.79552 4.54656-9.63584 8.63232-15.39072 12.25728-17.24416-6.01088 0.43008-12.00128 1.0752-17.96096 1.93536-3.9936 0.55296-9.15456 1.57696-15.52384 3.06176-6.3488 1.4848-12.60544 3.34848-18.76992 5.5808-6.16448 2.23232-13.13792 5.39648-20.95104 9.46176-7.80288 4.08576-15.22688 8.71424-22.30272 13.91616-7.07584 5.20192-14.49984 11.70432-22.31296 19.49696a229.15072 229.15072 0 0 0-22.03648 25.61024c-10.14784 15.21664-16.42496 30.69952-18.7904 46.46912-2.34496 15.75936-2.34496 28.94848 0 39.5264 2.3552 10.58816 4.37248 20.50048 6.00064 29.78816 1.64864 9.2672 0.4608 16.87552-3.52256 22.81472-4.01408 5.9392-12.3392 10.56768-25.04704 13.90592-8.3456 1.49504-14.96064-0.63488-19.8656-6.38976-4.90496-5.74464-7.97696-13.16864-9.24672-22.26176a165.9392 165.9392 0 0 1-1.64864-26.18368c0.18432-8.3456 0.99328-15.47264 2.46784-21.41184-5.80608-0.37888-14.70464 9.63584-26.66496 30.0544-23.22432 39.35232-35.91168 80.5376-38.11328 123.58656-3.64544 71.60832 26.83904 122.27584 91.45344 151.95136 40.97024 18.54464 94.86336 27.83232 161.61792 27.83232 108.12416 0.75776 177.60256-30.23872 208.44544-92.95872 22.1184-44.15488 22.66112-96.6656 1.64864-157.53216-16.71168-48.26112-41.19552-87.20384-73.49248-116.91008-22.49728-20.02944-43.7248-30.60736-63.67232-31.72352l-0.0512-0.01024zM432.29184 668.85632h-29.94176V615.424h-53.34016v53.43232h-29.92128V535.26528h29.92128v53.43232h53.34016v-53.43232h29.94176v133.59104z m126.54592-17.82784c-11.4176 11.8784-27.11552 17.8176-47.08352 17.8176-19.95776 0-35.64544-6.0416-47.07328-18.10432-11.4176-12.05248-17.12128-28.29312-17.12128-48.6912 0-20.77696 5.71392-37.10976 17.12128-48.96768 11.42784-11.8784 27.11552-17.80736 47.07328-17.80736 19.968 0 35.66592 5.9392 47.08352 17.80736 11.4176 11.85792 17.152 28.19072 17.152 48.96768 0 20.7872-5.72416 37.09952-17.152 48.97792z m145.60256-87.94112h-45.19936v105.7792h-30.47424v-105.7792h-45.17888v-27.8528H704.4096v27.8528h0.03072z m0 0z" fill="#E79164" p-id="2378"></path></svg>