<?xml version="1.0" standalone="no"?><!DOCTYPE svg PUBLIC "-//W3C//DTD SVG 1.1//EN" "http://www.w3.org/Graphics/SVG/1.1/DTD/svg11.dtd"><svg t="1493535068601" class="icon" style="" viewBox="0 0 1024 1024" version="1.1" xmlns="http://www.w3.org/2000/svg" p-id="2708" xmlns:xlink="http://www.w3.org/1999/xlink" width="200" height="200"><defs><style type="text/css"></style></defs><path d="M508.928 2.730667C228.352 2.730667 2.730667 231.424 2.730667 512s228.693333 509.269333 509.269333 509.269333 509.269333-228.693333 509.269333-509.269333C1018.197333 231.424 789.162667 2.730667 508.928 2.730667z m273.066667 548.181333c31.402667 0 48.128 19.456 48.128 50.858667V709.973333c0 31.402667-16.725333 54.613333-48.128 54.613334h-79.872v-33.792c-0.341333-7.168-0.341333-15.018667-0.341334-23.210667v-38.912l-0.682666-192.512c0-97.28-93.525333-187.050667-190.805334-187.050667h-6.144C406.869333 288.768 320.853333 378.88 320.853333 475.818667l0.341334 288.768H293.546667 242.005333c-31.402667 0-48.128-12.970667-48.128-44.714667v-126.293333c0-31.402667 15.018667-56.32 46.421334-56.32h23.552c8.533333 0 16.384 2.048 23.552 5.802666v-50.858666c0-128.682667 94.208-232.789333 222.890666-232.789334 128.682667 0 224.938667 104.106667 224.938667 232.789334l-0.341333 65.194666c7.168-4.096 15.36-6.485333 23.893333-6.485333h23.210667z" p-id="2709" fill="#ffffff"></path></svg>