<?xml version="1.0" standalone="no"?><!DOCTYPE svg PUBLIC "-//W3C//DTD SVG 1.1//EN" "http://www.w3.org/Graphics/SVG/1.1/DTD/svg11.dtd"><svg t="1493776112523" class="icon" style="" viewBox="0 0 1024 1024" version="1.1" xmlns="http://www.w3.org/2000/svg" p-id="3157" xmlns:xlink="http://www.w3.org/1999/xlink" width="128" height="128"><defs><style type="text/css"></style></defs><path d="M422.134785 192.893218l-141.216255 0c-13.010315 0-23.536043 8.924253-23.536043 19.954471l0 598.634126c0 10.989285 10.525728 19.954471 23.536043 19.954471l141.216255 0c13.010315 0 23.536043-8.965186 23.536043-19.954471l0-598.634126C445.670827 201.817472 435.144076 192.893218 422.134785 192.893218zM742.429625 192.893218l-141.216255 0c-13.011338 0-23.536043 8.924253-23.536043 19.954471l0 598.634126c0 10.989285 10.524704 19.954471 23.536043 19.954471l141.216255 0c13.011338 0 23.536043-8.965186 23.536043-19.954471l0-598.634126C765.965667 201.817472 755.440963 192.893218 742.429625 192.893218z" p-id="3158" fill="#ffffff"></path></svg>