<?xml version="1.0" standalone="no"?><!DOCTYPE svg PUBLIC "-//W3C//DTD SVG 1.1//EN" "http://www.w3.org/Graphics/SVG/1.1/DTD/svg11.dtd"><svg t="1493535048509" class="icon" style="" viewBox="0 0 1024 1024" version="1.1" xmlns="http://www.w3.org/2000/svg" p-id="2354" xmlns:xlink="http://www.w3.org/1999/xlink" width="200" height="200"><defs><style type="text/css"></style></defs><path d="M384.017251 757.231265c0-70.390512 57.592237-125.849703 125.849703-125.849703 70.390512 0 125.849703 57.592237 125.849703 125.849703s-57.592237 125.849703-125.849703 125.849703c-68.257466 2.133046-125.849703-55.459191-125.849703-125.849703m283.695094-251.699406c0-70.390512 57.592237-125.849703 125.849703-125.849704s125.849703 57.592237 125.849703 125.849704c0 70.390512-57.592237 125.849703-125.849703 125.849703s-125.849703-55.459191-125.849703-125.849703M384.017251 251.699406c0-70.390512 57.592237-125.849703 125.849703-125.849703 70.390512 0 125.849703 57.592237 125.849703 125.849703 0 70.390512-57.592237 125.849703-125.849703 125.849704-68.257466 2.133046-125.849703-55.459191-125.849703-125.849704M132.317845 505.531859c0-70.390512 57.592237-125.849703 125.849703-125.849704 70.390512 0 125.849703 57.592237 125.849703 125.849704 0 70.390512-57.592237 125.849703-125.849703 125.849703-70.390512 0-125.849703-55.459191-125.849703-125.849703m315.690781 0c0-34.128733 27.729596-63.991374 63.991374-63.991375 34.128733 0 63.991374 27.729596 63.991374 63.991375 0 34.128733-27.729596 63.991374-63.991374 63.991374s-63.991374-29.862641-63.991374-63.991374m330.622101 428.742209c68.257466 53.326145 110.918382 72.523558 177.042803 89.587924 14.931321 4.266092 61.858329-91.72097 61.858329-91.72097-46.927008-14.931321-108.785337-53.326145-136.514933-85.321833 83.188787-89.587924 134.381886-211.171536 134.381887-343.420376C1015.398813 226.102857 789.295956 0 509.866954 0S4.335096 226.102857 4.335096 505.531859s226.102857 505.531859 505.531858 505.531858c100.253153 0 191.974123-27.729596 268.763773-76.789649m0 0" p-id="2355" fill="#ffffff"></path></svg>